<?xml version="1.0" encoding="utf-8"?>
<svg xmlns="http://www.w3.org/2000/svg" xmlns:xlink="http://www.w3.org/1999/xlink" fill="none" height="80" viewBox="0 0 163 80" width="163">
  <mask id="a" height="22" maskUnits="userSpaceOnUse" width="106" x="28" y="30">
    <path d="m134 30h-106v22h106z" fill="#fff"/>
  </mask>
  <g fill="#969ea6" mask="url(#a)">
    <path d="m39.318 30.0039c-6.2449 0-11.318 4.9294-11.318 10.9973 0 6.0678 5.0731 10.9972 11.318 10.9972 6.2448 0 11.3179-4.9294 11.3179-10.9972 0-6.0679-5.0731-10.9973-11.3179-10.9973zm0 20.8924c-5.6216 0-10.1837-4.445-10.1837-9.8951 0-5.4502 4.5621-9.8951 10.1837-9.8951s10.1836 4.4449 10.1836 9.8951c0 5.4501-4.562 9.8951-10.1836 9.8951z"/>
    <path d="m43.3572 33.9511c-.0374-.0242-.0872-.0363-.1371-.0363-.1496 0-.2618.109-.2618.2543v3.4397c0 .1211-.0997.218-.2243.218h-6.8556c-.1247 0-.2119-.0969-.2244-.218v-3.4397c0-.0484-.0124-.0848-.0374-.1332-.0748-.1211-.2368-.1575-.3615-.0848-2.5303 1.5139-4.0634 4.1421-4.0634 7.0489s1.5331 5.535 4.0884 7.0489c.0374.0242.0872.0363.1371.0363.1496 0 .2617-.109.2617-.2543v-3.4397c0-.1211.0998-.2059.2244-.218h6.8556c.1246 0 .2244.0969.2244.218v3.4397c0 .0484.0124.0848.0374.1332.0747.1211.2368.1575.3614.0848 2.5553-1.5139 4.0885-4.1421 4.0885-7.0489s-1.5581-5.535-4.1134-7.0489zm-8.9995 11.3606.0374.4118-.2742-.327c-2.1066-2.5798-2.1066-6.2253 0-8.8051l.2368-.2907.0374-.0363-.0374.4239c-.0374.3391-.0499.6904-.0499 1.0416v6.5281c0 .3512.025.7025.0499 1.0537zm8.6006-2.6645c0 .1211-.0997.218-.2243.218h-6.8556c-.1247 0-.2119-.0969-.2244-.218v-3.2944c0-.1211.0997-.218.2244-.218h6.8556c.1246 0 .2243.0969.2243.218zm1.5457 2.7493-.2743.327.0374-.4118c.0374-.3391.0499-.6904.0499-1.0416v-6.5402c0-.3512-.0125-.7025-.0499-1.0416l-.0124-.1817-.0125-.1938v-.0484l.2618.327c1.0221 1.2354 1.583 2.8099 1.583 4.3965s-.5609 3.1732-1.583 4.4086z"/>
    <path d="m67.7126 40.8062c-.0623-.0242-.1371-.0484-.1371-.1211 0-.0484.0249-.0848.0748-.109.0872-.0363 2.2436-.7872 2.2436-3.258 0-2.7493-1.9071-4.3843-5.123-4.3843h-7.7904v16.1567h8.5009c2.4805 0 5.1479-1.7077 5.1479-4.457 0-2.6282-2.0442-3.5487-2.9167-3.8273zm-6.8057-4.566c0-.0606.0498-.109.1121-.109h3.0913c1.0221 0 1.7201.6661 1.7201 1.6593 0 .7751-.6232 1.6108-1.7949 1.6108h-3.0165c-.0623 0-.1121-.0484-.1121-.109zm3.2034 9.665h-3.0913c-.0623 0-.1121-.0485-.1121-.109v-3.2217c0-.0605.0498-.109.1121-.109h3.0165c1.4833 0 2.3309.6177 2.3309 1.7077 0 1.1264-.7853 1.732-2.2561 1.732zm32.8321-6.5402-.5983-.1211c-1.3462-.2786-2.655-.6298-2.655-1.7562s1.0844-1.6351 2.1564-1.6351c1.2589 0 2.5054.5451 3.4527 1.4898l2.4678-2.3739c-1.059-1.1385-2.9415-2.4465-5.9829-2.4465-3.6646 0-6.1326 2.0226-6.1326 5.0384 0 3.1853 2.5802 4.3843 4.7491 4.8324l.5858.1212c2.1065.436 3.1037.763 3.1037 1.9257 0 1.0416-.9598 1.7319-2.3807 1.7319-1.6703 0-3.1536-.7145-4.2754-2.0589l-2.5304 2.4102c1.3462 1.5502 3.1287 2.9552 6.8556 2.9552 3.1785 0 6.4068-1.7925 6.4068-5.2322-.012-3.5244-2.4804-4.3238-5.2226-4.8809zm32.8446-6.4312v5.9104c0 .0605-.05.109-.112.109h-5.111c-.062 0-.112-.0485-.112-.109v-5.9104h-4.188v16.1567h4.188v-6.3464c0-.0606.05-.109.112-.109h5.111c.062 0 .112.0484.112.109v6.3464h4.213v-16.1567zm-17.949 12.8503c-1.882 0-3.914-1.5261-3.914-4.881 0-3.0642 1.907-4.6629 3.789-4.6629 1.371 0 2.331.5571 3.091 1.7925l3.216-2.0711c-1.645-2.3496-3.602-3.4154-6.332-3.4154-5.347 0-7.74 4.2027-7.74 8.3569 0 5.0505 3.166 8.575 7.69 8.575 3.366 0 4.899-1.1991 6.507-3.4155l-3.241-2.1195c-.723 1.1385-1.508 1.841-3.066 1.841zm-31.7978-13.2621c-4.5745 0-7.6409 3.4033-7.6409 8.478s3.0664 8.4781 7.6409 8.4781c4.5746 0 7.6409-3.4034 7.6409-8.4781s-3.0663-8.478-7.6409-8.478zm0 13.2621c-2.2436 0-3.6896-1.8773-3.6896-4.7841 0-2.8946 1.446-4.7598 3.6896-4.7598 2.2561 0 3.7145 1.8652 3.7145 4.7598 0 2.9068-1.4584 4.7841-3.7145 4.7841z"/>
  </g>
</svg>